<svg xmlns="http://www.w3.org/2000/svg" viewBox="0 0 108 29" width="108" height="29">
	<style>
		tspan { white-space:pre }
		.shp0 { fill: #6997ff } 
		.shp1 { fill: #577bcb } 
		.shp2 { fill: #ffffff } 
		.shp3 { fill: #3a3a3a } 
	</style>
	<g id="Layer" style="opacity: 0.302">
		<path id="Layer" class="shp0" d="M0.08 16.8L2.87 3.19C3.32 1.03 5.43 -0.36 7.6 0.08L21.2 2.87C23.37 3.32 24.76 5.43 24.32 7.6L21.52 21.2C21.08 23.37 18.97 24.76 16.8 24.32L3.2 21.52C1.03 21.08 -0.36 18.97 0.08 16.8Z" />
	</g>
	<g id="Layer" style="opacity: 0.302">
		<path id="Layer" class="shp0" d="M6.41 6.87L19.94 3.75C22.09 3.25 24.24 4.59 24.73 6.74L27.86 20.27C28.36 22.42 27.02 24.57 24.86 25.07L11.34 28.19C9.18 28.69 7.04 27.35 6.54 25.19L3.42 11.67C2.92 9.51 4.26 7.37 6.41 6.87Z" />
	</g>
	<path id="Layer" class="shp1" d="M6.95 3.28L20.84 3.28C23.05 3.28 24.84 5.07 24.84 7.28L24.84 21.17C24.84 23.38 23.05 25.17 20.84 25.17L6.95 25.17C4.74 25.17 2.95 23.38 2.95 21.17L2.95 7.28C2.95 5.07 4.74 3.28 6.95 3.28Z" />
	<path id="Layer" class="shp2" d="M14.17 20.52C11.82 20.53 9.64 19.27 8.46 17.23C7.29 15.2 7.29 12.68 8.47 10.65C9.66 8.61 11.84 7.37 14.19 7.38C16.54 7.39 18.71 8.66 19.87 10.71C19.95 10.86 20 11.02 20.02 11.19C20.04 11.35 20.02 11.52 19.98 11.68C19.93 11.84 19.85 11.99 19.75 12.13C19.64 12.26 19.52 12.37 19.37 12.45C19.35 12.46 19.33 12.47 19.3 12.49C19.28 12.5 19.26 12.51 19.23 12.52C19.21 12.52 19.19 12.53 19.16 12.54C19.14 12.55 19.11 12.55 19.09 12.56L19.09 12.56C18.96 12.6 18.81 12.62 18.67 12.61C18.53 12.6 18.39 12.57 18.26 12.52C18.13 12.47 18.01 12.4 17.91 12.3C17.8 12.21 17.71 12.1 17.64 11.98C16.84 10.58 15.27 9.79 13.67 9.99C12.06 10.19 10.74 11.34 10.31 12.9C9.88 14.46 10.43 16.13 11.71 17.12C12.98 18.11 14.73 18.24 16.14 17.44C16.28 17.36 16.41 17.27 16.54 17.18C16.67 17.08 16.79 16.98 16.91 16.87C17.02 16.76 17.13 16.64 17.23 16.52C17.34 16.39 17.43 16.26 17.52 16.13C17.6 16.01 17.7 15.91 17.81 15.83C17.92 15.74 18.04 15.68 18.18 15.64C18.31 15.59 18.45 15.58 18.59 15.58C18.73 15.58 18.87 15.61 19 15.66L19 15.66C19.16 15.71 19.3 15.8 19.43 15.91C19.56 16.02 19.66 16.15 19.73 16.31C19.81 16.46 19.85 16.62 19.86 16.79C19.87 16.95 19.85 17.12 19.79 17.28C19.78 17.3 19.77 17.33 19.76 17.35C19.75 17.37 19.74 17.4 19.73 17.42C19.72 17.44 19.71 17.46 19.7 17.48C19.69 17.51 19.67 17.53 19.66 17.55C19.36 18 19.01 18.42 18.61 18.79C18.21 19.15 17.77 19.47 17.29 19.73C16.81 19.99 16.31 20.18 15.78 20.32C15.25 20.45 14.71 20.52 14.17 20.52L14.17 20.52Z" />
	<path id="Layer" fill-rule="evenodd" class="shp3" d="M57.61 19.69C57.61 19.75 57.61 19.82 57.6 19.88C57.58 19.94 57.57 20 57.54 20.06C57.51 20.12 57.48 20.17 57.44 20.22C57.4 20.27 57.36 20.32 57.31 20.36C57.26 20.4 57.21 20.44 57.16 20.47C57.1 20.5 57.05 20.52 56.99 20.55C56.93 20.57 56.87 20.58 56.81 20.59C56.74 20.6 56.68 20.61 56.62 20.61C56.09 20.61 55.79 20.3 55.72 19.68C55.53 19.83 55.32 19.97 55.11 20.08C54.9 20.2 54.67 20.3 54.44 20.38C54.21 20.46 53.97 20.52 53.73 20.56C53.49 20.59 53.24 20.61 53 20.61C51.14 20.61 49.47 19.48 48.76 17.76C48.05 16.04 48.44 14.07 49.76 12.75C51.08 11.44 53.05 11.05 54.77 11.76C56.49 12.47 57.61 14.15 57.61 16.01L57.61 19.69ZM55.72 15.99C55.72 15.99 55.72 16 55.72 16C55.72 16 55.72 16.01 55.72 16.01L55.72 15.99ZM55.68 15.48C55.64 15.31 55.59 15.14 55.52 14.98C55.46 14.81 55.37 14.66 55.27 14.51C55.17 14.37 55.06 14.23 54.93 14.11C54.68 13.86 54.38 13.67 54.06 13.53C53.73 13.4 53.38 13.33 53.03 13.33C52.68 13.33 52.33 13.4 52 13.53C51.68 13.67 51.38 13.86 51.13 14.11C50.88 14.36 50.69 14.65 50.55 14.98C50.42 15.3 50.35 15.65 50.35 15.99C50.35 16.34 50.42 16.69 50.55 17.01C50.69 17.34 50.88 17.63 51.13 17.88C51.38 18.13 51.68 18.33 52 18.46C52.33 18.6 52.68 18.67 53.03 18.67C53.38 18.67 53.73 18.6 54.06 18.46C54.38 18.33 54.68 18.13 54.93 17.88C55.06 17.76 55.17 17.62 55.27 17.48C55.37 17.33 55.45 17.18 55.52 17.02C55.59 16.85 55.64 16.69 55.67 16.51C55.71 16.35 55.72 16.17 55.72 16C55.72 15.83 55.71 15.65 55.68 15.48Z" />
	<path id="Layer" class="shp3" d="M60.59 19.66C60.59 19.72 60.58 19.78 60.56 19.84C60.55 19.89 60.53 19.95 60.5 20C60.47 20.06 60.44 20.11 60.4 20.15C60.37 20.2 60.33 20.24 60.28 20.28C60.23 20.32 60.18 20.36 60.13 20.39C60.07 20.42 60.01 20.45 59.96 20.47C59.9 20.5 59.84 20.51 59.78 20.53C59.72 20.54 59.65 20.55 59.59 20.56C59.52 20.56 59.46 20.56 59.4 20.54C59.33 20.53 59.27 20.51 59.21 20.49C59.15 20.47 59.09 20.44 59.03 20.4C58.98 20.37 58.93 20.33 58.88 20.28C58.83 20.24 58.78 20.19 58.74 20.15C58.7 20.1 58.67 20.04 58.64 19.99C58.61 19.93 58.58 19.87 58.56 19.81C58.55 19.75 58.54 19.68 58.53 19.62L58.53 8.79C58.53 8.72 58.54 8.66 58.56 8.6C58.57 8.53 58.6 8.47 58.63 8.42C58.66 8.36 58.7 8.31 58.74 8.26C58.79 8.21 58.84 8.17 58.89 8.13C58.94 8.09 58.99 8.05 59.04 8.02C59.09 7.99 59.15 7.96 59.2 7.94C59.26 7.91 59.32 7.89 59.38 7.88C59.44 7.87 59.5 7.86 59.56 7.85C59.62 7.85 59.69 7.86 59.75 7.88C59.81 7.9 59.87 7.92 59.93 7.95C59.98 7.97 60.04 8.01 60.09 8.04C60.14 8.08 60.19 8.12 60.23 8.17C60.28 8.21 60.33 8.26 60.37 8.31C60.41 8.36 60.45 8.41 60.48 8.47C60.51 8.52 60.54 8.59 60.55 8.65C60.57 8.71 60.59 8.77 60.59 8.84L60.59 19.66Z" />
	<path id="Layer" fill-rule="evenodd" class="shp3" d="M70.66 17.03L63.66 17.03C63.76 17.27 63.9 17.5 64.07 17.71C64.24 17.91 64.43 18.09 64.65 18.23C64.87 18.38 65.12 18.49 65.37 18.57C65.62 18.64 65.89 18.68 66.15 18.68L67.18 18.68C67.24 18.68 67.3 18.69 67.36 18.71C67.42 18.72 67.48 18.74 67.53 18.77C67.59 18.79 67.64 18.82 67.7 18.86C67.75 18.89 67.8 18.93 67.84 18.97C67.89 19.01 67.93 19.06 67.97 19.11C68 19.16 68.04 19.22 68.06 19.28C68.09 19.34 68.1 19.4 68.12 19.46C68.13 19.52 68.13 19.59 68.13 19.65C68.13 19.76 68.12 19.86 68.08 19.96C68.05 20.07 68 20.16 67.93 20.24C67.86 20.32 67.78 20.39 67.68 20.44C67.59 20.49 67.49 20.53 67.38 20.54C67.27 20.56 67.16 20.57 67.06 20.58C66.95 20.59 66.84 20.6 66.73 20.61C66.62 20.61 66.51 20.62 66.41 20.62C66.3 20.62 66.19 20.62 66.08 20.61C64.37 20.61 62.81 19.67 62 18.17C61.2 16.66 61.3 14.84 62.25 13.42C63.21 12.01 64.86 11.24 66.56 11.42C68.26 11.6 69.71 12.7 70.35 14.28C70.39 14.39 70.43 14.5 70.47 14.61C70.5 14.72 70.53 14.84 70.56 14.95C70.58 15.07 70.6 15.18 70.62 15.3C70.64 15.42 70.65 15.53 70.65 15.65L70.66 17.03ZM68.44 15.1C68.4 14.97 68.35 14.85 68.3 14.73C68.24 14.61 68.17 14.5 68.1 14.39C68.02 14.28 67.94 14.18 67.85 14.08C67.76 13.98 67.66 13.89 67.56 13.81C67.46 13.73 67.35 13.66 67.23 13.6C67.12 13.54 66.99 13.49 66.87 13.45C66.75 13.41 66.62 13.38 66.49 13.36C66.36 13.34 66.23 13.33 66.1 13.33C65.83 13.33 65.55 13.37 65.29 13.46C65.03 13.54 64.79 13.66 64.56 13.82C64.34 13.98 64.14 14.17 63.97 14.38C63.81 14.6 63.67 14.84 63.58 15.1L68.44 15.1Z" />
	<path id="Layer" class="shp3" d="M80.5 19.64C80.5 19.77 80.47 19.9 80.42 20.02C80.37 20.14 80.3 20.25 80.21 20.35C80.11 20.44 80 20.51 79.88 20.56C79.76 20.61 79.63 20.64 79.5 20.64C79.44 20.64 79.38 20.63 79.32 20.62C79.26 20.61 79.2 20.59 79.15 20.57C79.09 20.55 79.04 20.52 78.98 20.49C78.93 20.46 78.88 20.42 78.84 20.38C78.79 20.34 78.75 20.3 78.71 20.25C78.68 20.2 78.64 20.14 78.62 20.09C78.59 20.03 78.58 19.97 78.56 19.91C78.55 19.85 78.55 19.79 78.55 19.73L78.55 16.23C78.6 15.49 78.33 14.77 77.83 14.23C77.32 13.69 76.61 13.39 75.88 13.39C75.14 13.39 74.43 13.69 73.92 14.23C73.42 14.77 73.15 15.49 73.2 16.23L73.2 16.23L73.2 19.66C73.2 19.72 73.19 19.79 73.18 19.85C73.17 19.91 73.15 19.97 73.12 20.03C73.1 20.09 73.07 20.15 73.03 20.2C73 20.25 72.96 20.3 72.91 20.35C72.86 20.4 72.82 20.44 72.76 20.47C72.71 20.51 72.65 20.54 72.59 20.57C72.54 20.59 72.47 20.61 72.41 20.63C72.35 20.64 72.28 20.65 72.22 20.65C72.16 20.65 72.1 20.64 72.04 20.63C71.98 20.62 71.92 20.6 71.87 20.58C71.81 20.56 71.76 20.53 71.7 20.5C71.65 20.47 71.6 20.43 71.56 20.39C71.51 20.35 71.47 20.3 71.43 20.24C71.39 20.19 71.36 20.13 71.34 20.07C71.31 20.01 71.3 19.94 71.29 19.88C71.28 19.81 71.27 19.75 71.28 19.68L71.28 16.17C71.34 14.99 71.84 13.87 72.7 13.06C73.55 12.24 74.69 11.78 75.88 11.78C77.06 11.78 78.2 12.24 79.05 13.06C79.91 13.87 80.41 14.99 80.47 16.17C80.53 17.35 80.49 17.28 80.5 19.64Z" />
	<path id="Layer" fill-rule="evenodd" class="shp3" d="M90.45 15.9C90.45 16.21 90.43 16.51 90.37 16.82C90.31 17.12 90.23 17.41 90.11 17.7C89.99 17.98 89.85 18.26 89.68 18.51C89.51 18.77 89.31 19 89.09 19.22C88.68 19.65 88.18 19.99 87.64 20.23C87.09 20.46 86.51 20.59 85.91 20.6C85.32 20.61 84.73 20.5 84.17 20.28C83.62 20.06 83.12 19.73 82.69 19.32L82.59 19.22C82.16 18.78 81.82 18.26 81.59 17.69C81.36 17.12 81.24 16.51 81.24 15.9C81.24 15.28 81.36 14.67 81.59 14.1C81.82 13.53 82.16 13.01 82.59 12.57C82.8 12.35 83.03 12.15 83.27 11.98C83.52 11.81 83.79 11.66 84.07 11.54C84.34 11.42 84.63 11.33 84.93 11.27C85.23 11.22 85.53 11.19 85.83 11.19C86.07 11.19 86.32 11.22 86.56 11.26C86.8 11.31 87.03 11.37 87.26 11.46C87.49 11.54 87.71 11.65 87.92 11.77C88.13 11.89 88.33 12.03 88.52 12.19L88.52 8.85C88.52 8.79 88.53 8.72 88.54 8.66C88.55 8.59 88.57 8.53 88.59 8.47C88.62 8.41 88.65 8.36 88.68 8.3C88.72 8.25 88.76 8.2 88.8 8.15C88.85 8.1 88.89 8.06 88.95 8.03C89 7.99 89.06 7.96 89.12 7.93C89.17 7.91 89.24 7.89 89.3 7.87C89.36 7.86 89.43 7.85 89.49 7.85C89.55 7.85 89.61 7.86 89.67 7.87C89.73 7.88 89.79 7.9 89.85 7.92C89.91 7.95 89.96 7.97 90.01 8.01C90.07 8.04 90.12 8.08 90.16 8.12C90.21 8.16 90.25 8.21 90.29 8.26C90.32 8.31 90.35 8.37 90.38 8.42C90.4 8.48 90.42 8.54 90.43 8.6C90.45 8.66 90.45 8.73 90.45 8.79L90.45 15.9ZM88.09 14.41C87.8 13.97 87.39 13.62 86.91 13.4C86.43 13.19 85.89 13.13 85.37 13.21C84.85 13.3 84.37 13.54 83.98 13.9L83.92 13.96C83.67 14.22 83.47 14.52 83.34 14.86C83.2 15.19 83.13 15.55 83.13 15.9C83.13 16.26 83.2 16.62 83.34 16.95C83.47 17.29 83.67 17.59 83.92 17.85C84.16 18.1 84.44 18.3 84.76 18.44C85.08 18.58 85.42 18.65 85.76 18.66C86.11 18.67 86.45 18.61 86.77 18.49C87.09 18.36 87.39 18.18 87.64 17.94L87.72 17.85C87.85 17.72 87.96 17.58 88.06 17.43C88.17 17.28 88.25 17.12 88.32 16.96C88.39 16.79 88.44 16.62 88.47 16.44C88.51 16.26 88.52 16.08 88.52 15.9C88.52 15.37 88.37 14.85 88.09 14.41Z" />
	<path id="Layer" fill-rule="evenodd" class="shp3" d="M100.41 19.69C100.41 19.75 100.41 19.82 100.39 19.88C100.38 19.94 100.36 20 100.33 20.06C100.31 20.12 100.27 20.17 100.23 20.22C100.2 20.27 100.15 20.32 100.1 20.36C100.05 20.4 100 20.44 99.95 20.47C99.9 20.5 99.84 20.52 99.78 20.54C99.72 20.57 99.66 20.58 99.6 20.59C99.54 20.6 99.48 20.61 99.42 20.61C98.89 20.61 98.59 20.3 98.52 19.68C98.33 19.83 98.12 19.97 97.91 20.08C97.7 20.2 97.47 20.3 97.24 20.38C97.01 20.46 96.77 20.52 96.53 20.56C96.29 20.59 96.04 20.61 95.8 20.61C93.94 20.61 92.27 19.48 91.56 17.76C90.85 16.04 91.24 14.07 92.56 12.75C93.88 11.44 95.85 11.05 97.57 11.76C99.29 12.47 100.41 14.15 100.41 16.01L100.41 19.69ZM98.52 15.99C98.52 15.99 98.52 16 98.52 16C98.52 16 98.52 16.01 98.52 16.01L98.52 15.99ZM98.47 15.48C98.44 15.31 98.39 15.14 98.32 14.98C98.25 14.81 98.16 14.66 98.06 14.51C97.96 14.37 97.85 14.23 97.72 14.11C97.47 13.86 97.17 13.67 96.85 13.53C96.52 13.4 96.17 13.33 95.82 13.33C95.47 13.33 95.12 13.4 94.79 13.53C94.47 13.67 94.17 13.86 93.92 14.11C93.67 14.36 93.48 14.65 93.35 14.98C93.21 15.3 93.15 15.65 93.15 15.99C93.15 16.34 93.21 16.69 93.35 17.01C93.48 17.34 93.67 17.63 93.92 17.88C94.17 18.13 94.47 18.33 94.79 18.46C95.12 18.6 95.47 18.67 95.82 18.67C96.17 18.67 96.52 18.6 96.85 18.46C97.17 18.33 97.47 18.13 97.72 17.88C97.85 17.76 97.96 17.63 98.06 17.48C98.16 17.34 98.25 17.18 98.32 17.02C98.39 16.86 98.44 16.69 98.47 16.51C98.51 16.35 98.52 16.17 98.52 16C98.52 15.83 98.51 15.65 98.47 15.48Z" />
	<path id="Layer" class="shp3" d="M107.56 12.38C107.56 12.44 107.56 12.49 107.55 12.55C107.54 12.6 107.53 12.66 107.5 12.71C107.48 12.76 107.46 12.81 107.43 12.86C107.4 12.91 107.36 12.95 107.32 12.99C107.28 13.03 107.24 13.07 107.2 13.1C107.15 13.13 107.1 13.16 107.05 13.18C107 13.2 106.95 13.22 106.89 13.23C106.84 13.24 106.79 13.24 106.73 13.24L105.65 13.24C105.47 13.24 105.3 13.26 105.13 13.29C104.95 13.33 104.79 13.38 104.62 13.45C104.46 13.52 104.31 13.6 104.17 13.7C104.02 13.81 103.89 13.92 103.77 14.05C103.64 14.18 103.52 14.32 103.42 14.48C103.32 14.63 103.24 14.8 103.17 14.97C103.11 15.14 103.06 15.32 103.03 15.5C103 15.68 102.98 15.87 102.99 16.05L102.99 19.66C102.99 19.72 102.99 19.78 102.97 19.83C102.96 19.89 102.95 19.95 102.92 20C102.9 20.05 102.87 20.1 102.84 20.15C102.8 20.2 102.76 20.24 102.72 20.28C102.68 20.32 102.63 20.35 102.58 20.38C102.53 20.41 102.48 20.43 102.43 20.45C102.38 20.47 102.32 20.49 102.27 20.5C102.21 20.51 102.16 20.51 102.1 20.51C101.99 20.51 101.88 20.49 101.78 20.44C101.68 20.4 101.59 20.34 101.52 20.26C101.44 20.19 101.38 20.1 101.34 20C101.29 19.9 101.27 19.79 101.27 19.68L101.27 16C101.27 15.72 101.29 15.43 101.34 15.16C101.39 14.88 101.47 14.6 101.57 14.34C101.68 14.08 101.8 13.82 101.95 13.58C102.1 13.34 102.28 13.12 102.47 12.91C102.65 12.7 102.86 12.51 103.08 12.34C103.3 12.17 103.54 12.03 103.79 11.91C104.04 11.78 104.31 11.69 104.58 11.62C104.85 11.55 105.12 11.51 105.4 11.49L106.95 11.49L106.95 11.49C107.05 11.51 107.14 11.55 107.22 11.61C107.3 11.67 107.37 11.74 107.42 11.82C107.48 11.9 107.52 11.99 107.54 12.09C107.57 12.18 107.57 12.28 107.56 12.38Z" />
	<path id="Layer" class="shp3" d="M41.52 20.71C38.99 20.71 36.67 19.33 35.45 17.11C34.24 14.89 34.34 12.19 35.7 10.06C37.06 7.93 39.48 6.71 42 6.89C44.52 7.06 46.75 8.59 47.81 10.89C47.86 11.02 47.89 11.15 47.9 11.29C47.9 11.43 47.88 11.56 47.83 11.69C47.78 11.82 47.7 11.94 47.61 12.04C47.52 12.14 47.4 12.22 47.28 12.28L47.1 12.34L47.1 12.34C46.98 12.37 46.86 12.38 46.73 12.37C46.61 12.35 46.49 12.32 46.38 12.27C46.27 12.21 46.17 12.14 46.08 12.05C45.99 11.96 45.92 11.86 45.87 11.75C44.94 9.75 42.75 8.64 40.58 9.08C38.42 9.52 36.84 11.39 36.76 13.6C36.68 15.81 38.13 17.79 40.26 18.37C42.39 18.96 44.65 18.01 45.72 16.08C45.78 15.97 45.86 15.87 45.95 15.79C46.05 15.71 46.15 15.64 46.27 15.59C46.38 15.55 46.51 15.52 46.63 15.52C46.76 15.51 46.88 15.53 47 15.57L47 15.57C47.13 15.62 47.25 15.69 47.36 15.78C47.47 15.87 47.55 15.98 47.62 16.11C47.68 16.23 47.72 16.37 47.73 16.51C47.74 16.65 47.72 16.79 47.68 16.92C47.68 16.93 47.67 16.95 47.66 16.96C47.66 16.98 47.65 16.99 47.65 17.01C47.64 17.02 47.64 17.03 47.63 17.05C47.62 17.06 47.62 17.08 47.61 17.09C47.31 17.64 46.95 18.14 46.52 18.59C46.09 19.04 45.6 19.42 45.07 19.74C44.53 20.06 43.96 20.3 43.36 20.47C42.76 20.63 42.14 20.71 41.52 20.71Z" />
</svg>